<?xml version="1.0" encoding="UTF-8" standalone="no"?>
<svg
   xmlns:dc="http://purl.org/dc/elements/1.1/"
   xmlns:cc="http://creativecommons.org/ns#"
   xmlns:rdf="http://www.w3.org/1999/02/22-rdf-syntax-ns#"
   xmlns:svg="http://www.w3.org/2000/svg"
   xmlns="http://www.w3.org/2000/svg"
   xmlns:xlink="http://www.w3.org/1999/xlink"
   xmlns:sodipodi="http://sodipodi.sourceforge.net/DTD/sodipodi-0.dtd"
   xmlns:inkscape="http://www.inkscape.org/namespaces/inkscape"
   inkscape:export-ydpi="96"
   inkscape:export-xdpi="96"
   inkscape:export-filename="C:\Users\Asvin\AndroidStudioProjects\vulcan\assets\icons\icon.png"
   sodipodi:docname="icon.svg"
   inkscape:version="1.0rc1 (09960d6f05, 2020-04-09)"
   id="svg8"
   version="1.1"
   viewBox="0 0 125 125"
   height="125mm"
   width="125mm">
  <defs
     id="defs2">
    <linearGradient
       id="linearGradient905"
       inkscape:collect="always">
      <stop
         id="stop901"
         offset="0"
         style="stop-color:#ffff00;stop-opacity:1" />
      <stop
         id="stop903"
         offset="1"
         style="stop-color:#ff0000;stop-opacity:1" />
    </linearGradient>
    <radialGradient
       gradientUnits="userSpaceOnUse"
       gradientTransform="matrix(0.62438843,0.07374161,-0.14211215,1.2032988,49.94879,-18.314158)"
       r="21.841837"
       fy="127.51377"
       fx="66.430748"
       cy="127.51377"
       cx="66.430748"
       id="radialGradient911"
       xlink:href="#linearGradient905"
       inkscape:collect="always" />
  </defs>
  <sodipodi:namedview
     inkscape:window-maximized="0"
     inkscape:window-y="-32000"
     inkscape:window-x="-32000"
     inkscape:window-height="1001"
     inkscape:window-width="1920"
     fit-margin-bottom="0"
     fit-margin-right="0"
     fit-margin-left="0"
     fit-margin-top="0"
     showgrid="false"
     inkscape:document-rotation="0"
     inkscape:current-layer="layer1"
     inkscape:document-units="mm"
     inkscape:cy="341.73133"
     inkscape:cx="166.12351"
     inkscape:zoom="0.98994949"
     inkscape:pageshadow="2"
     inkscape:pageopacity="0.0"
     borderopacity="1.0"
     bordercolor="#666666"
     pagecolor="#ffffff"
     id="base" />
  <metadata
     id="metadata5">
    <rdf:RDF>
      <cc:Work
         rdf:about="">
        <dc:format>image/svg+xml</dc:format>
        <dc:type
           rdf:resource="http://purl.org/dc/dcmitype/StillImage" />
        <dc:title></dc:title>
      </cc:Work>
    </rdf:RDF>
  </metadata>
  <g
     transform="translate(-34.745038,-89.134381)"
     id="layer1"
     inkscape:groupmode="layer"
     inkscape:label="Layer 1">
    <path
       inkscape:connector-curvature="0"
       id="path943"
       d="M 79.359911,195.96892 C 67.310864,184.2877 62.715331,179.73876 62.809675,179.58647 c 0.189674,-0.30617 3.346959,-4.68747 4.097098,-5.68546 1.112043,-1.47947 2.71373,-3.21917 2.977959,-3.23456 0.299922,-0.0175 5.16498,4.46359 13.97665,12.87346 6.404422,6.11238 5.543163,5.30656 8.450896,7.90687 1.356279,1.21288 2.740999,2.39037 3.077156,2.61664 l 0.611203,0.4114 0.705636,-0.3629 c 0.877062,-0.45106 2.621069,-1.88579 4.949527,-4.07183 1.19293,-1.11995 1.86692,-1.64739 2.02838,-1.58733 0.17763,0.0661 9.78898,6.26842 10.07067,6.49874 0.0404,0.033 -16.427879,16.04162 -17.330345,16.84671 l -0.38375,0.34234 z m 71.882079,11.94453 c -0.62051,-0.10923 -1.37223,-0.27243 -1.67048,-0.36266 -8.23933,-2.49274 -13.5371,-4.49787 -19.87292,-7.52163 -7.14176,-3.40839 -14.52794,-7.85112 -22.27651,-13.39914 -3.28102,-2.34923 -8.746046,-6.44122 -8.746046,-6.54868 0,-0.0625 0.805408,-0.73008 1.789806,-1.48358 0.98439,-0.7535 2.4185,-1.88232 3.18692,-2.50848 0.76841,-0.62616 1.48838,-1.10454 1.59992,-1.06304 0.11154,0.0415 1.84915,1.35385 3.86135,2.91633 6.57017,5.1018 10.60633,7.89689 16.21022,11.22575 5.76805,3.4264 11.94537,6.15551 13.96047,6.16768 0.59314,0.004 1.07389,-0.49603 1.07389,-1.11603 0,-1.30175 -0.87685,-3.36143 -4.04243,-9.49553 l -2.17447,-4.21358 0.78633,-0.87607 c 1.21681,-1.35568 3.54636,-3.50459 4.09432,-3.77684 0.44113,-0.21918 0.52959,-0.2205 0.83591,-0.0125 2.47594,1.68122 12.77994,25.21325 13.62163,31.10878 0.17558,1.2298 -0.0796,1.33917 -2.23791,0.95923 z M 38.587929,207.73363 c -0.388259,-0.98085 1.80664,-8.05987 4.475748,-14.43525 4.308539,-10.29131 9.853637,-19.5409 18.702311,-31.1967 4.586862,-6.04198 5.464122,-7.17178 5.568724,-7.17178 0.06192,0 0.783391,0.7808 1.603268,1.73511 0.819884,0.95431 2.011587,2.34079 2.648231,3.08107 0.636644,0.74027 1.157531,1.38773 1.157531,1.43878 0,0.0511 -1.127574,1.4472 -2.505722,3.10253 -5.498198,6.60401 -7.672472,9.39779 -9.942059,12.77478 -4.092113,6.08879 -8.130121,13.96408 -8.483264,16.54483 -0.164617,1.20304 0.141931,1.57741 1.291651,1.57741 1.520163,0 2.948382,-0.56158 9.679207,-3.80596 4.177197,-2.01348 4.286645,-2.05592 4.613716,-1.78916 1.835845,1.49733 4.250964,3.93407 4.592947,4.63408 0.145454,0.29772 0.10168,0.42026 -0.293458,0.82154 -0.25542,0.25939 -1.059904,0.82083 -1.787729,1.24763 -1.309979,0.76818 -7.176196,3.58991 -9.017771,4.33767 -0.525013,0.21317 -1.81367,0.74623 -2.863689,1.18456 -2.911744,1.21551 -9.402416,3.6287 -12.251216,4.5549 -4.588251,1.49174 -6.959734,1.94171 -7.188426,1.36396 z m 82.910251,-24.86034 c -2.75582,-1.94394 -5.03726,-3.67222 -6.01413,-4.55593 l -0.61276,-0.55433 0.53098,-0.64993 c 0.8487,-1.03882 3.31251,-3.53587 9.03333,-9.15519 10.93469,-10.74069 14.96844,-14.91862 14.96844,-15.50347 0,-0.2834 -1.0148,-1.82829 -1.66654,-2.53707 -0.56055,-0.60961 -1.92772,-2.01487 -3.47775,-3.57467 l -1.25329,-1.26118 2.1985,-3.13443 c 1.20918,-1.72393 2.73812,-3.91263 3.39766,-4.86379 0.65954,-0.95115 1.27099,-1.73194 1.35879,-1.7351 0.0878,-0.003 4.11854,3.83265 8.95721,8.52401 l 8.79756,8.52975 -16.63681,16.14734 c -9.15024,8.88104 -16.7248,16.14233 -16.83234,16.13621 -0.10755,-0.006 -1.34453,-0.82163 -2.74885,-1.81222 z m -33.656424,-0.34678 c -0.472514,-0.49697 -1.681606,-1.70992 -2.686871,-2.69543 l -1.827757,-1.79184 0.642169,-0.56565 c 0.353192,-0.31111 0.925111,-0.80954 1.270925,-1.10763 5.276817,-4.54854 6.879971,-5.93552 8.901636,-7.70133 6.211022,-5.42497 12.096282,-10.95942 13.160142,-12.37569 0.37033,-0.49299 0.75386,-0.89634 0.85231,-0.89634 0.36688,0 2.27848,1.57538 4.24848,3.50126 l 2.03338,1.98783 -2.11292,1.99109 c -7.14122,6.72945 -7.62882,7.18054 -13.090388,12.1098 -4.58201,4.13543 -6.983636,6.14657 -8.668453,7.25903 -2.042349,1.34853 -1.741333,1.31702 -2.722653,0.2849 z m -3.583949,-15.3745 c -1.586162,-1.50527 -3.658366,-3.535 -4.604895,-4.51052 -0.94653,-0.97552 -2.261878,-2.3301 -2.922995,-3.0102 -0.661116,-0.68009 -1.953753,-2.03011 -2.872514,-3.00003 -0.918767,-0.96993 -1.777874,-1.87334 -1.909125,-2.00759 -1.737401,-1.77704 -8.034238,-8.70824 -8.034238,-8.84362 0,-0.16791 5.297111,-5.59744 5.500614,-5.63813 0.05027,-0.01 1.282181,1.31776 2.737548,2.95069 2.904107,3.25843 3.027644,3.39397 5.02157,5.50936 0.757295,0.80342 1.80263,1.91388 2.322982,2.4677 0.520347,0.55382 3.527216,3.67433 6.68194,6.93448 6.906152,7.13695 6.929055,7.16096 6.929055,7.26403 0,0.0451 -0.871722,0.77387 -1.937164,1.6195 -1.065436,0.84563 -2.336198,1.86656 -2.823912,2.26874 -0.487714,0.40218 -0.958345,0.7315 -1.045846,0.73184 -0.0875,3.1e-4 -1.456865,-1.23098 -3.04302,-2.73625 z m -34.105382,0.22994 c -0.83126,-0.6939 -4.721667,-4.35275 -8.645344,-8.13079 l -7.133954,-6.86915 16.123572,-15.57589 c 8.867964,-8.56673 16.423008,-15.80385 16.788995,-16.08248 l 0.665422,-0.50661 1.958805,1.28275 c 3.079049,2.01636 7.291728,5.24416 7.285378,5.58213 -0.0066,0.34948 -4.259026,4.67049 -13.821442,14.04424 -7.142301,7.00138 -10.675927,10.73973 -10.675927,11.29444 0,0.39234 2.016091,2.83141 4.079029,4.93481 l 2.249449,2.29356 -1.772168,2.5379 c -2.793841,4.00102 -4.832523,6.47525 -5.325462,6.4632 -0.145725,-0.003 -0.945086,-0.57422 -1.776353,-1.26811 z m 71.511865,-3.34137 c -0.71126,-0.85125 -4.67833,-5.36725 -5.02582,-5.72127 -0.12292,-0.12521 -0.865,-0.9564 -1.64909,-1.84709 -5.50338,-6.25162 -9.7836,-10.72357 -14.20724,-14.84368 l -2.109876,-1.96509 0.598488,-0.52148 c 2.224008,-1.9378 5.124168,-3.95594 5.682868,-3.95453 0.33148,5.8e-4 6.70262,6.12016 10.67428,10.25236 1.22041,1.26975 2.79167,2.90198 3.49169,3.62717 4.48806,4.6495 8.53457,9.41245 8.78483,10.34018 0.0444,0.16456 -0.85464,1.10377 -2.66342,2.78245 -1.50174,1.39371 -2.77784,2.55149 -2.83579,2.57284 -0.058,0.0213 -0.39136,-0.30349 -0.74092,-0.72186 z m 1.4155,-15.93544 c -0.84936,-1.03914 -2.03799,-2.45743 -2.64139,-3.15176 l -1.09709,-1.26241 2.12081,-2.6705 c 3.78588,-4.7671 4.64911,-5.87887 6.08527,-7.83726 0.77759,-1.06034 1.67177,-2.27492 1.98706,-2.69906 2.38557,-3.20904 5.81973,-8.71688 7.89009,-12.65441 1.73156,-3.2932 2.61827,-5.61454 2.66632,-6.9803 0.0251,-0.71426 -0.0252,-0.86999 -0.3681,-1.1396 -0.87298,-0.68633 -2.85284,-0.01 -9.94389,3.3975 l -4.77281,2.29342 -0.47728,-0.37573 c -1.17136,-0.92212 -3.85153,-3.59434 -4.17909,-4.16667 l -0.36083,-0.63048 0.67902,-0.53156 c 2.39348,-1.87369 15.46048,-8.12695 21.59985,-10.336694 5.54958,-1.99745 9.66582,-2.996305 10.70102,-2.596726 0.80687,0.311448 0.84929,0.716829 0.27913,2.667138 -0.80509,2.753922 -2.90164,8.809742 -3.78291,10.926862 -3.49968,8.4074 -9.43692,18.68264 -16.21953,28.07019 -1.11409,1.54198 -4.17831,5.75181 -6.17435,8.48275 -0.77501,1.06035 -1.5873,2.18817 -1.8051,2.50627 -0.2178,0.31811 -0.45133,0.57837 -0.51895,0.57837 -0.0676,0 -0.81789,-0.8502 -1.66725,-1.88934 z m -40.818959,0.93789 c -1.934801,-2.35733 -2.874096,-3.56325 -3.447267,-4.42578 -0.558457,-0.84038 -0.626223,-1.02901 -0.470974,-1.31097 0.367791,-0.66799 6.784996,-6.75837 13.015125,-12.35228 3.22261,-2.89351 11.073515,-9.41945 11.541195,-9.59343 0.14444,-0.0537 0.97431,0.61209 2.25849,1.81204 1.11658,1.04334 2.37911,2.22302 2.80561,2.62152 0.42652,0.39849 0.73031,0.79538 0.6751,0.88198 -0.0552,0.0866 -1.37066,1.21838 -2.92323,2.51509 -2.34135,1.95549 -6.903229,5.85205 -7.198094,6.1483 -0.04384,0.044 -0.509601,0.4618 -1.035035,0.92835 -0.773072,0.68644 -2.923109,2.6187 -5.405862,4.8583 -0.724066,0.65316 -3.592228,3.30884 -5.572548,5.15974 -1.138626,1.06421 -2.435635,2.27022 -2.882244,2.68003 l -0.812007,0.7451 z M 113.78994,126.50088 C 103.647,116.7053 98.205565,111.72503 96.421071,110.60404 c -0.38141,-0.23959 -0.471876,-0.24389 -0.875017,-0.0416 -0.795326,0.39906 -2.274661,1.59155 -4.187214,3.37532 -1.02619,0.95708 -2.090742,1.94415 -2.365674,2.19349 l -0.499873,0.45332 -0.993965,-0.66551 c -0.546684,-0.36603 -2.801677,-1.84748 -5.011091,-3.29212 -2.209415,-1.44463 -4.017119,-2.68711 -4.017119,-2.76107 0,-0.074 3.955474,-3.9878 8.789933,-8.69742 l 8.789932,-8.562935 16.528347,16.030885 16.52836,16.03088 -0.96908,1.52036 c -1.88451,2.95656 -3.14154,4.77998 -4.53021,6.57145 -0.77262,0.99672 -1.41855,1.81131 -1.43539,1.8102 -0.0168,-0.001 -3.78923,-3.63189 -8.38307,-8.06839 z m -28.398239,2.26554 c -7.858045,-6.36986 -13.809927,-10.48445 -20.761736,-14.35276 -4.044472,-2.25052 -9.052184,-4.60961 -10.904919,-5.1372 -1.367638,-0.38945 -1.893504,0.0707 -1.763347,1.54313 0.158876,1.79729 1.075166,4.04314 3.858947,9.45841 l 2.12688,4.1374 -0.90552,0.95225 c -1.654698,1.74008 -3.334211,3.26544 -3.937321,3.57594 l -0.595743,0.30671 -0.55082,-0.61409 c -1.161531,-1.29495 -4.085162,-6.71022 -6.496421,-12.03292 -0.499566,-1.10276 -1.145331,-2.52555 -1.435043,-3.16176 -2.072168,-4.55051 -4.434204,-10.7667 -5.242832,-13.797599 -0.328213,-1.230209 -0.320715,-2.298298 0.01804,-2.570648 0.841976,-0.676908 5.297286,0.360173 11.668744,2.716178 0.831266,0.307379 2.048332,0.756869 2.704597,0.998859 5.241809,1.93291 12.42059,5.61301 20.761737,10.64324 4.000913,2.4128 8.118815,5.0858 16.227566,10.53358 0.875017,0.58787 1.966796,1.31483 2.426177,1.61546 0.459387,0.30063 0.835247,0.60114 0.835247,0.66781 0,0.0667 -0.196884,0.2706 -0.437512,0.45321 -0.240628,0.18261 -0.831266,0.69252 -1.312522,1.13313 -1.221564,1.11839 -4.718919,4.11141 -4.792007,4.10097 -0.03319,-0.005 -0.704681,-0.53092 -1.492197,-1.1693 z"
       style="fill:#7a0000;stroke-width:0.156644;fill-opacity:1" />
  </g>
</svg>
